<svg width="40" height="40" viewBox="0 0 40 40" fill="none" xmlns="http://www.w3.org/2000/svg">
<rect width="40" height="40" rx="3.96" fill="#2B7C5F"/>
<g clip-path="url(#clip0_3740_40)">
<path d="M19.0752 11.4193C19.0752 11.0822 19.3531 10.8081 19.6947 10.8081H25.8666C26.2083 10.8081 26.4862 11.0822 26.4862 11.4193V11.6559H29.3321V11.4193C29.3321 9.53409 27.7775 8 25.8662 8H19.6944C17.7835 8 16.2285 9.53371 16.2285 11.4193V17.2246H19.0744V11.4193H19.0752Z" fill="white"/>
<path d="M9.46585 20.9181L19.0425 20.8897H23.6974V18.1006H16.288C16.2888 18.1036 16.2892 18.107 16.2899 18.1101H9.46585C7.5546 18.1104 6 19.6442 6 21.5297V27.5812C6 29.4664 7.5546 31.0005 9.46585 31.0005H15.6377C17.5486 31.0005 19.1036 29.4667 19.1036 27.5812V21.8323H16.2576V27.5812C16.2576 27.9182 15.9798 28.1924 15.6381 28.1924H9.46585C9.12418 28.1924 8.84631 27.9182 8.84631 27.5812V21.5297C8.84631 21.1927 9.12418 20.9185 9.46585 20.9185V20.9181Z" fill="white"/>
<path d="M30.9015 14.407H26.9218C26.1641 14.407 25.5498 15.013 25.5498 15.7606V19.6868C25.5498 20.4344 26.1641 21.0404 26.9218 21.0404H30.9015C31.6593 21.0404 32.2736 20.4344 32.2736 19.6868V15.7606C32.2736 15.013 31.6593 14.407 30.9015 14.407Z" fill="white"/>
<path d="M31.9555 24.4141H28.9255C28.3485 24.4141 27.8809 24.8755 27.8809 25.4446V28.4339C27.8809 29.0031 28.3485 29.4645 28.9255 29.4645H31.9555C32.5324 29.4645 33.0001 29.0031 33.0001 28.4339V25.4446C33.0001 24.8755 32.5324 24.4141 31.9555 24.4141Z" fill="white"/>
<path d="M24.5949 23.4902H22.3793C21.9573 23.4902 21.6152 23.8277 21.6152 24.244V26.4299C21.6152 26.8462 21.9573 27.1837 22.3793 27.1837H24.5949C25.0169 27.1837 25.3589 26.8462 25.3589 26.4299V24.244C25.3589 23.8277 25.0169 23.4902 24.5949 23.4902Z" fill="white"/>
</g>
<defs>
<clipPath id="clip0_3740_40">
<rect width="27" height="23" fill="white" transform="translate(6 8)"/>
</clipPath>
</defs>
</svg>
