<svg width="181" height="40" viewBox="0 0 181 40" fill="none" xmlns="http://www.w3.org/2000/svg">
<rect width="40" height="40" rx="3.96" fill="#2B7C5F"/>
<g clip-path="url(#clip0_3526_138)">
<path d="M19.0747 11.4193C19.0747 11.0822 19.3526 10.8081 19.6943 10.8081H25.8661C26.2078 10.8081 26.4857 11.0822 26.4857 11.4193V11.6559H29.3316V11.4193C29.3316 9.53409 27.777 8 25.8658 8H19.6939C17.783 8 16.228 9.53371 16.228 11.4193V17.2246H19.074V11.4193H19.0747Z" fill="white"/>
<path d="M9.46585 20.9181L19.0425 20.8897H23.6974V18.1006H16.288C16.2888 18.1036 16.2892 18.107 16.2899 18.1101H9.46585C7.5546 18.1104 6 19.6442 6 21.5297V27.5812C6 29.4664 7.5546 31.0005 9.46585 31.0005H15.6377C17.5486 31.0005 19.1036 29.4667 19.1036 27.5812V21.8323H16.2576V27.5812C16.2576 27.9182 15.9798 28.1924 15.6381 28.1924H9.46585C9.12418 28.1924 8.84631 27.9182 8.84631 27.5812V21.5297C8.84631 21.1927 9.12418 20.9185 9.46585 20.9185V20.9181Z" fill="white"/>
<path d="M30.9018 14.407H26.9221C26.1643 14.407 25.55 15.013 25.55 15.7606V19.6868C25.55 20.4344 26.1643 21.0404 26.9221 21.0404H30.9018C31.6595 21.0404 32.2738 20.4344 32.2738 19.6868V15.7606C32.2738 15.013 31.6595 14.407 30.9018 14.407Z" fill="white"/>
<path d="M31.9555 24.4141H28.9255C28.3485 24.4141 27.8809 24.8755 27.8809 25.4446V28.4339C27.8809 29.0031 28.3485 29.4645 28.9255 29.4645H31.9555C32.5324 29.4645 33.0001 29.0031 33.0001 28.4339V25.4446C33.0001 24.8755 32.5324 24.4141 31.9555 24.4141Z" fill="white"/>
<path d="M24.5952 23.4902H22.3795C21.9576 23.4902 21.6155 23.8277 21.6155 24.244V26.4299C21.6155 26.8462 21.9576 27.1837 22.3795 27.1837H24.5952C25.0171 27.1837 25.3592 26.8462 25.3592 26.4299V24.244C25.3592 23.8277 25.0171 23.4902 24.5952 23.4902Z" fill="white"/>
</g>
<path d="M54.32 27.14C53.2933 27.14 52.3733 26.9733 51.56 26.64C50.7467 26.3067 50.0933 25.8133 49.6 25.16C49.12 24.5067 48.8667 23.72 48.84 22.8H52.48C52.5333 23.32 52.7133 23.72 53.02 24C53.3267 24.2667 53.7267 24.4 54.22 24.4C54.7267 24.4 55.1267 24.2867 55.42 24.06C55.7133 23.82 55.86 23.4933 55.86 23.08C55.86 22.7333 55.74 22.4467 55.5 22.22C55.2733 21.9933 54.9867 21.8067 54.64 21.66C54.3067 21.5133 53.8267 21.3467 53.2 21.16C52.2933 20.88 51.5533 20.6 50.98 20.32C50.4067 20.04 49.9133 19.6267 49.5 19.08C49.0867 18.5333 48.88 17.82 48.88 16.94C48.88 15.6333 49.3533 14.6133 50.3 13.88C51.2467 13.1333 52.48 12.76 54 12.76C55.5467 12.76 56.7933 13.1333 57.74 13.88C58.6867 14.6133 59.1933 15.64 59.26 16.96H55.56C55.5333 16.5067 55.3667 16.1533 55.06 15.9C54.7533 15.6333 54.36 15.5 53.88 15.5C53.4667 15.5 53.1333 15.6133 52.88 15.84C52.6267 16.0533 52.5 16.3667 52.5 16.78C52.5 17.2333 52.7133 17.5867 53.14 17.84C53.5667 18.0933 54.2333 18.3667 55.14 18.66C56.0467 18.9667 56.78 19.26 57.34 19.54C57.9133 19.82 58.4067 20.2267 58.82 20.76C59.2333 21.2933 59.44 21.98 59.44 22.82C59.44 23.62 59.2333 24.3467 58.82 25C58.42 25.6533 57.8333 26.1733 57.06 26.56C56.2867 26.9467 55.3733 27.14 54.32 27.14ZM67.7647 24.1V27H66.0247C64.7847 27 63.818 26.7 63.1247 26.1C62.4314 25.4867 62.0847 24.4933 62.0847 23.12V18.68H60.7247V15.84H62.0847V13.12H65.5047V15.84H67.7447V18.68H65.5047V23.16C65.5047 23.4933 65.5847 23.7333 65.7447 23.88C65.9047 24.0267 66.1714 24.1 66.5447 24.1H67.7647ZM80.6897 15.84V27H77.2697V25.48C76.923 25.9733 76.4497 26.3733 75.8497 26.68C75.263 26.9733 74.6097 27.12 73.8897 27.12C73.0364 27.12 72.283 26.9333 71.6297 26.56C70.9764 26.1733 70.4697 25.62 70.1097 24.9C69.7497 24.18 69.5697 23.3333 69.5697 22.36V15.84H72.9697V21.9C72.9697 22.6467 73.163 23.2267 73.5497 23.64C73.9364 24.0533 74.4564 24.26 75.1097 24.26C75.7764 24.26 76.303 24.0533 76.6897 23.64C77.0764 23.2267 77.2697 22.6467 77.2697 21.9V15.84H80.6897ZM82.4663 21.4C82.4663 20.2533 82.6796 19.2467 83.1063 18.38C83.5463 17.5133 84.1396 16.8467 84.8863 16.38C85.6329 15.9133 86.4663 15.68 87.3863 15.68C88.1196 15.68 88.7863 15.8333 89.3863 16.14C89.9996 16.4467 90.4796 16.86 90.8263 17.38V12.2H94.2463V27H90.8263V25.4C90.5063 25.9333 90.0463 26.36 89.4463 26.68C88.8596 27 88.1729 27.16 87.3863 27.16C86.4663 27.16 85.6329 26.9267 84.8863 26.46C84.1396 25.98 83.5463 25.3067 83.1063 24.44C82.6796 23.56 82.4663 22.5467 82.4663 21.4ZM90.8263 21.42C90.8263 20.5667 90.5863 19.8933 90.1063 19.4C89.6396 18.9067 89.0663 18.66 88.3863 18.66C87.7063 18.66 87.1263 18.9067 86.6463 19.4C86.1796 19.88 85.9463 20.5467 85.9463 21.4C85.9463 22.2533 86.1796 22.9333 86.6463 23.44C87.1263 23.9333 87.7063 24.18 88.3863 24.18C89.0663 24.18 89.6396 23.9333 90.1063 23.44C90.5863 22.9467 90.8263 22.2733 90.8263 21.42ZM107.24 21.24C107.24 21.56 107.22 21.8933 107.18 22.24H99.4405C99.4938 22.9333 99.7138 23.4667 100.1 23.84C100.5 24.2 100.987 24.38 101.56 24.38C102.414 24.38 103.007 24.02 103.34 23.3H106.98C106.794 24.0333 106.454 24.6933 105.96 25.28C105.48 25.8667 104.874 26.3267 104.14 26.66C103.407 26.9933 102.587 27.16 101.68 27.16C100.587 27.16 99.6138 26.9267 98.7605 26.46C97.9071 25.9933 97.2405 25.3267 96.7605 24.46C96.2805 23.5933 96.0405 22.58 96.0405 21.42C96.0405 20.26 96.2738 19.2467 96.7405 18.38C97.2205 17.5133 97.8871 16.8467 98.7405 16.38C99.5938 15.9133 100.574 15.68 101.68 15.68C102.76 15.68 103.72 15.9067 104.56 16.36C105.4 16.8133 106.054 17.46 106.52 18.3C107 19.14 107.24 20.12 107.24 21.24ZM103.74 20.34C103.74 19.7533 103.54 19.2867 103.14 18.94C102.74 18.5933 102.24 18.42 101.64 18.42C101.067 18.42 100.58 18.5867 100.18 18.92C99.7938 19.2533 99.5538 19.7267 99.4605 20.34H103.74ZM115.845 15.72C117.151 15.72 118.191 16.1467 118.965 17C119.751 17.84 120.145 19 120.145 20.48V27H116.745V20.94C116.745 20.1933 116.551 19.6133 116.165 19.2C115.778 18.7867 115.258 18.58 114.605 18.58C113.951 18.58 113.431 18.7867 113.045 19.2C112.658 19.6133 112.465 20.1933 112.465 20.94V27H109.045V15.84H112.465V17.32C112.811 16.8267 113.278 16.44 113.865 16.16C114.451 15.8667 115.111 15.72 115.845 15.72ZM128.741 24.1V27H127.001C125.761 27 124.795 26.7 124.101 26.1C123.408 25.4867 123.061 24.4933 123.061 23.12V18.68H121.701V15.84H123.061V13.12H126.481V15.84H128.721V18.68H126.481V23.16C126.481 23.4933 126.561 23.7333 126.721 23.88C126.881 24.0267 127.148 24.1 127.521 24.1H128.741ZM139.786 12.96V15.7H134.066V18.66H138.346V21.32H134.066V27H130.646V12.96H139.786ZM152.604 15.84V27H149.184V25.48C148.837 25.9733 148.364 26.3733 147.764 26.68C147.177 26.9733 146.524 27.12 145.804 27.12C144.95 27.12 144.197 26.9333 143.544 26.56C142.89 26.1733 142.384 25.62 142.024 24.9C141.664 24.18 141.484 23.3333 141.484 22.36V15.84H144.884V21.9C144.884 22.6467 145.077 23.2267 145.464 23.64C145.85 24.0533 146.37 24.26 147.024 24.26C147.69 24.26 148.217 24.0533 148.604 23.64C148.99 23.2267 149.184 22.6467 149.184 21.9V15.84H152.604ZM161.86 15.72C163.167 15.72 164.207 16.1467 164.98 17C165.767 17.84 166.16 19 166.16 20.48V27H162.76V20.94C162.76 20.1933 162.567 19.6133 162.18 19.2C161.794 18.7867 161.274 18.58 160.62 18.58C159.967 18.58 159.447 18.7867 159.06 19.2C158.674 19.6133 158.48 20.1933 158.48 20.94V27H155.06V15.84H158.48V17.32C158.827 16.8267 159.294 16.44 159.88 16.16C160.467 15.8667 161.127 15.72 161.86 15.72ZM167.857 21.4C167.857 20.2533 168.07 19.2467 168.497 18.38C168.937 17.5133 169.53 16.8467 170.277 16.38C171.024 15.9133 171.857 15.68 172.777 15.68C173.51 15.68 174.177 15.8333 174.777 16.14C175.39 16.4467 175.87 16.86 176.217 17.38V12.2H179.637V27H176.217V25.4C175.897 25.9333 175.437 26.36 174.837 26.68C174.25 27 173.564 27.16 172.777 27.16C171.857 27.16 171.024 26.9267 170.277 26.46C169.53 25.98 168.937 25.3067 168.497 24.44C168.07 23.56 167.857 22.5467 167.857 21.4ZM176.217 21.42C176.217 20.5667 175.977 19.8933 175.497 19.4C175.03 18.9067 174.457 18.66 173.777 18.66C173.097 18.66 172.517 18.9067 172.037 19.4C171.57 19.88 171.337 20.5467 171.337 21.4C171.337 22.2533 171.57 22.9333 172.037 23.44C172.517 23.9333 173.097 24.18 173.777 24.18C174.457 24.18 175.03 23.9333 175.497 23.44C175.977 22.9467 176.217 22.2733 176.217 21.42Z" fill="#091913"/>
<defs>
<clipPath id="clip0_3526_138">
<rect width="27" height="23" fill="white" transform="translate(6 8)"/>
</clipPath>
</defs>
</svg>
