<svg width="240" height="128" viewBox="0 0 240 128" fill="none" xmlns="http://www.w3.org/2000/svg">
<g filter="url(#filter0_d_3440_82)">
<rect x="42.5" y="40.5" width="155" height="43" rx="8.5" stroke="black" stroke-opacity="0.1" shape-rendering="crispEdges"/>
<path d="M68.8337 68.126C68.0057 68.126 67.2617 67.982 66.6017 67.694C65.9537 67.394 65.4437 66.986 65.0717 66.47C64.6997 65.942 64.5077 65.336 64.4957 64.652H66.2417C66.3017 65.24 66.5417 65.738 66.9617 66.146C67.3937 66.542 68.0177 66.74 68.8337 66.74C69.6137 66.74 70.2257 66.548 70.6697 66.164C71.1257 65.768 71.3537 65.264 71.3537 64.652C71.3537 64.172 71.2217 63.782 70.9577 63.482C70.6937 63.182 70.3637 62.954 69.9677 62.798C69.5717 62.642 69.0377 62.474 68.3657 62.294C67.5377 62.078 66.8717 61.862 66.3677 61.646C65.8757 61.43 65.4497 61.094 65.0897 60.638C64.7417 60.17 64.5677 59.546 64.5677 58.766C64.5677 58.082 64.7417 57.476 65.0897 56.948C65.4377 56.42 65.9237 56.012 66.5477 55.724C67.1837 55.436 67.9097 55.292 68.7257 55.292C69.9017 55.292 70.8617 55.586 71.6057 56.174C72.3617 56.762 72.7877 57.542 72.8837 58.514H71.0837C71.0237 58.034 70.7717 57.614 70.3277 57.254C69.8837 56.882 69.2957 56.696 68.5637 56.696C67.8797 56.696 67.3217 56.876 66.8897 57.236C66.4577 57.584 66.2417 58.076 66.2417 58.712C66.2417 59.168 66.3677 59.54 66.6197 59.828C66.8837 60.116 67.2017 60.338 67.5737 60.494C67.9577 60.638 68.4917 60.806 69.1757 60.998C70.0037 61.226 70.6697 61.454 71.1737 61.682C71.6777 61.898 72.1097 62.24 72.4697 62.708C72.8297 63.164 73.0097 63.788 73.0097 64.58C73.0097 65.192 72.8477 65.768 72.5237 66.308C72.1997 66.848 71.7197 67.286 71.0837 67.622C70.4477 67.958 69.6977 68.126 68.8337 68.126ZM77.4182 59.486V65.3C77.4182 65.78 77.5202 66.122 77.7242 66.326C77.9282 66.518 78.2822 66.614 78.7862 66.614H79.9922V68H78.5162C77.6042 68 76.9202 67.79 76.4642 67.37C76.0082 66.95 75.7802 66.26 75.7802 65.3V59.486H74.5022V58.136H75.7802V55.652H77.4182V58.136H79.9922V59.486H77.4182ZM90.7248 58.136V68H89.0868V66.542C88.7748 67.046 88.3368 67.442 87.7728 67.73C87.2208 68.006 86.6088 68.144 85.9368 68.144C85.1688 68.144 84.4788 67.988 83.8668 67.676C83.2548 67.352 82.7688 66.872 82.4088 66.236C82.0608 65.6 81.8868 64.826 81.8868 63.914V58.136H83.5068V63.698C83.5068 64.67 83.7528 65.42 84.2448 65.948C84.7368 66.464 85.4088 66.722 86.2608 66.722C87.1368 66.722 87.8268 66.452 88.3308 65.912C88.8348 65.372 89.0868 64.586 89.0868 63.554V58.136H90.7248ZM92.8785 63.032C92.8785 62.024 93.0825 61.142 93.4905 60.386C93.8985 59.618 94.4565 59.024 95.1645 58.604C95.8845 58.184 96.6885 57.974 97.5765 57.974C98.3445 57.974 99.0585 58.154 99.7185 58.514C100.378 58.862 100.882 59.324 101.23 59.9V54.68H102.886V68H101.23V66.146C100.906 66.734 100.426 67.22 99.7905 67.604C99.1545 67.976 98.4105 68.162 97.5585 68.162C96.6825 68.162 95.8845 67.946 95.1645 67.514C94.4565 67.082 93.8985 66.476 93.4905 65.696C93.0825 64.916 92.8785 64.028 92.8785 63.032ZM101.23 63.05C101.23 62.306 101.08 61.658 100.78 61.106C100.48 60.554 100.072 60.134 99.5565 59.846C99.0525 59.546 98.4945 59.396 97.8825 59.396C97.2705 59.396 96.7125 59.54 96.2085 59.828C95.7045 60.116 95.3025 60.536 95.0025 61.088C94.7025 61.64 94.5525 62.288 94.5525 63.032C94.5525 63.788 94.7025 64.448 95.0025 65.012C95.3025 65.564 95.7045 65.99 96.2085 66.29C96.7125 66.578 97.2705 66.722 97.8825 66.722C98.4945 66.722 99.0525 66.578 99.5565 66.29C100.072 65.99 100.48 65.564 100.78 65.012C101.08 64.448 101.23 63.794 101.23 63.05ZM112.747 55.454V56.786H107.293V61.016H111.721V62.348H107.293V68H105.655V55.454H112.747ZM123.473 58.136V68H121.835V66.542C121.523 67.046 121.085 67.442 120.521 67.73C119.969 68.006 119.357 68.144 118.685 68.144C117.917 68.144 117.227 67.988 116.615 67.676C116.003 67.352 115.517 66.872 115.157 66.236C114.809 65.6 114.635 64.826 114.635 63.914V58.136H116.255V63.698C116.255 64.67 116.501 65.42 116.993 65.948C117.485 66.464 118.157 66.722 119.009 66.722C119.885 66.722 120.575 66.452 121.079 65.912C121.583 65.372 121.835 64.586 121.835 63.554V58.136H123.473ZM131.045 57.956C132.245 57.956 133.217 58.322 133.961 59.054C134.705 59.774 135.077 60.818 135.077 62.186V68H133.457V62.42C133.457 61.436 133.211 60.686 132.719 60.17C132.227 59.642 131.555 59.378 130.703 59.378C129.839 59.378 129.149 59.648 128.633 60.188C128.129 60.728 127.877 61.514 127.877 62.546V68H126.239V58.136H127.877V59.54C128.201 59.036 128.639 58.646 129.191 58.37C129.755 58.094 130.373 57.956 131.045 57.956ZM137.14 63.032C137.14 62.024 137.344 61.142 137.752 60.386C138.16 59.618 138.718 59.024 139.426 58.604C140.146 58.184 140.95 57.974 141.838 57.974C142.606 57.974 143.32 58.154 143.98 58.514C144.64 58.862 145.144 59.324 145.492 59.9V54.68H147.148V68H145.492V66.146C145.168 66.734 144.688 67.22 144.052 67.604C143.416 67.976 142.672 68.162 141.82 68.162C140.944 68.162 140.146 67.946 139.426 67.514C138.718 67.082 138.16 66.476 137.752 65.696C137.344 64.916 137.14 64.028 137.14 63.032ZM145.492 63.05C145.492 62.306 145.342 61.658 145.042 61.106C144.742 60.554 144.334 60.134 143.818 59.846C143.314 59.546 142.756 59.396 142.144 59.396C141.532 59.396 140.974 59.54 140.47 59.828C139.966 60.116 139.564 60.536 139.264 61.088C138.964 61.64 138.814 62.288 138.814 63.032C138.814 63.788 138.964 64.448 139.264 65.012C139.564 65.564 139.966 65.99 140.47 66.29C140.974 66.578 141.532 66.722 142.144 66.722C142.756 66.722 143.314 66.578 143.818 66.29C144.334 65.99 144.742 65.564 145.042 65.012C145.342 64.448 145.492 63.794 145.492 63.05Z" fill="#2B7C5F"/>
<path d="M168.75 61.8126C168.608 61.8126 168.465 61.7601 168.353 61.6476C168.135 61.4301 168.135 61.0701 168.353 60.8526L174.503 54.7026C174.72 54.4851 175.08 54.4851 175.298 54.7026C175.515 54.9201 175.515 55.2801 175.298 55.4976L169.148 61.6476C169.035 61.7601 168.893 61.8126 168.75 61.8126Z" fill="#2B7C5F"/>
<path d="M175.5 58.6625C175.192 58.6625 174.937 58.4075 174.937 58.1V55.0625H171.9C171.592 55.0625 171.337 54.8075 171.337 54.5C171.337 54.1925 171.592 53.9375 171.9 53.9375H175.5C175.807 53.9375 176.062 54.1925 176.062 54.5V58.1C176.062 58.4075 175.807 58.6625 175.5 58.6625Z" fill="#2B7C5F"/>
<path d="M170.25 70.0625H165.75C161.678 70.0625 159.938 68.3225 159.938 64.25V59.75C159.938 55.6775 161.678 53.9375 165.75 53.9375H167.25C167.557 53.9375 167.812 54.1925 167.812 54.5C167.812 54.8075 167.557 55.0625 167.25 55.0625H165.75C162.293 55.0625 161.062 56.2925 161.062 59.75V64.25C161.062 67.7075 162.293 68.9375 165.75 68.9375H170.25C173.708 68.9375 174.938 67.7075 174.938 64.25V62.75C174.938 62.4425 175.193 62.1875 175.5 62.1875C175.807 62.1875 176.062 62.4425 176.062 62.75V64.25C176.062 68.3225 174.323 70.0625 170.25 70.0625Z" fill="#2B7C5F"/>
</g>
<defs>
<filter id="filter0_d_3440_82" x="0" y="0" width="240" height="128" filterUnits="userSpaceOnUse" color-interpolation-filters="sRGB">
<feFlood flood-opacity="0" result="BackgroundImageFix"/>
<feColorMatrix in="SourceAlpha" type="matrix" values="0 0 0 0 0 0 0 0 0 0 0 0 0 0 0 0 0 0 127 0" result="hardAlpha"/>
<feOffset dy="2"/>
<feGaussianBlur stdDeviation="21"/>
<feComposite in2="hardAlpha" operator="out"/>
<feColorMatrix type="matrix" values="0 0 0 0 0 0 0 0 0 0 0 0 0 0 0 0 0 0 0.25 0"/>
<feBlend mode="normal" in2="BackgroundImageFix" result="effect1_dropShadow_3440_82"/>
<feBlend mode="normal" in="SourceGraphic" in2="effect1_dropShadow_3440_82" result="shape"/>
</filter>
</defs>
</svg>
