<svg width="27" height="23" viewBox="0 0 27 23" fill="none" xmlns="http://www.w3.org/2000/svg">
<g clip-path="url(#clip0_3440_48)">
<path d="M13.0747 3.41929C13.0747 3.08221 13.3526 2.80808 13.6943 2.80808H19.8661C20.2078 2.80808 20.4857 3.08221 20.4857 3.41929V3.65589H23.3316V3.41929C23.3316 1.53409 21.777 0 19.8658 0H13.6939C11.783 0 10.228 1.53371 10.228 3.41929V9.22465H13.074V3.41929H13.0747Z" fill="white"/>
<path d="M3.46585 12.918L13.0425 12.8896H17.6974V10.1005H10.288C10.2888 10.1035 10.2892 10.1069 10.2899 10.1099H3.46585C1.5546 10.1103 0 11.644 0 13.5296V19.581C0 21.4662 1.5546 23.0003 3.46585 23.0003H9.63772C11.5486 23.0003 13.1036 21.4666 13.1036 19.581V13.8322H10.2576V19.581C10.2576 19.9181 9.97977 20.1923 9.63811 20.1923H3.46585C3.12418 20.1923 2.84631 19.9181 2.84631 19.581V13.5296C2.84631 13.1925 3.12418 12.9184 3.46585 12.9184V12.918Z" fill="white"/>
<path d="M24.902 6.40698H20.9223C20.1646 6.40698 19.5503 7.01301 19.5503 7.76059V11.6868C19.5503 12.4344 20.1646 13.0404 20.9223 13.0404H24.902C25.6598 13.0404 26.2741 12.4344 26.2741 11.6868V7.76059C26.2741 7.01301 25.6598 6.40698 24.902 6.40698Z" fill="white"/>
<path d="M25.9555 16.4139H22.9255C22.3485 16.4139 21.8809 16.8753 21.8809 17.4445V20.4338C21.8809 21.003 22.3485 21.4644 22.9255 21.4644H25.9555C26.5324 21.4644 27.0001 21.003 27.0001 20.4338V17.4445C27.0001 16.8753 26.5324 16.4139 25.9555 16.4139Z" fill="white"/>
<path d="M18.5954 15.4904H16.3798C15.9578 15.4904 15.6157 15.8278 15.6157 16.2441V18.43C15.6157 18.8463 15.9578 19.1838 16.3798 19.1838H18.5954C19.0174 19.1838 19.3594 18.8463 19.3594 18.43V16.2441C19.3594 15.8278 19.0174 15.4904 18.5954 15.4904Z" fill="white"/>
</g>
<defs>
<clipPath id="clip0_3440_48">
<rect width="27" height="23" fill="white"/>
</clipPath>
</defs>
</svg>
